<?xml version="1.0" standalone="no"?>
<!DOCTYPE svg PUBLIC "-//W3C//DTD SVG 20010904//EN"
 "http://www.w3.org/TR/2001/REC-SVG-20010904/DTD/svg10.dtd">
<svg version="1.0" xmlns="http://www.w3.org/2000/svg"
 width="100.000000pt" height="100.000000pt" viewBox="0 0 100.000000 100.000000"
 preserveAspectRatio="xMidYMid meet">
<metadata>
Created by potrace 1.14, written by Peter Selinger 2001-2017
</metadata>
<g transform="translate(0.000000,100.000000) scale(0.100000,-0.100000)"
fill="#000000" stroke="none">
<path d="M149 933 c-1 -5 -1 -12 1 -18 1 -5 -4 -5 -10 1 -15 15 -67 -12 -76
-39 -3 -9 -9 -15 -14 -12 -8 5 -25 -24 -21 -38 0 -4 -5 -10 -13 -13 -11 -4
-14 -34 -15 -139 -1 -83 2 -136 9 -140 5 -3 10 -1 10 6 0 7 3 10 6 6 3 -3 18
5 32 18 14 13 29 22 34 19 4 -3 8 0 8 6 0 6 5 8 10 5 6 -3 10 -1 10 4 0 6 6
11 14 11 8 0 16 5 18 11 2 5 11 11 20 13 9 1 26 10 38 21 11 10 20 15 20 10 0
-4 10 -1 23 7 27 18 119 54 130 50 4 -1 7 3 7 10 0 6 3 9 6 5 4 -3 18 0 33 7
14 7 34 12 43 11 10 -2 22 4 28 13 8 14 9 14 10 2 0 -9 3 -11 8 -5 4 6 16 11
27 12 11 1 34 5 50 9 17 4 45 8 63 8 17 1 32 4 32 8 0 3 14 5 30 4 17 -1 30 2
30 7 0 5 8 3 17 -4 11 -10 14 -10 9 -1 -8 13 19 13 41 -1 6 -4 15 -2 18 4 4 6
19 8 34 5 14 -3 20 -3 12 1 -11 5 -11 7 0 15 11 8 10 9 -3 5 -9 -3 -19 1 -22
9 -3 8 -1 14 4 14 5 0 5 12 1 28 -4 15 -6 33 -4 40 4 9 -71 12 -351 12 -196 0
-357 -3 -357 -7z"/>
<path d="M777 679 c7 -7 15 -10 18 -7 3 3 -2 9 -12 12 -14 6 -15 5 -6 -5z"/>
<path d="M700 672 c-14 -2 -32 -6 -40 -9 -8 -3 -28 -7 -44 -9 -17 -3 -34 -10
-38 -17 -6 -9 -8 -9 -8 2 0 11 -3 11 -15 1 -8 -6 -19 -9 -25 -5 -5 3 -10 1
-10 -5 0 -6 -5 -8 -10 -5 -6 4 -17 1 -25 -5 -8 -7 -22 -10 -30 -6 -8 3 -15 1
-15 -5 0 -6 -4 -7 -10 -4 -5 3 -10 1 -10 -5 0 -6 -4 -8 -10 -5 -5 3 -10 0 -10
-7 0 -11 -2 -10 -9 0 -7 11 -9 10 -15 -3 -3 -9 -10 -13 -16 -10 -5 3 -10 1
-10 -5 0 -6 -4 -9 -9 -5 -5 3 -12 1 -16 -5 -4 -6 -11 -8 -16 -5 -5 4 -9 1 -9
-5 0 -6 -4 -8 -10 -5 -5 3 -10 2 -10 -2 0 -5 -9 -14 -21 -21 -17 -11 -20 -11
-14 0 3 7 -1 4 -9 -6 -9 -11 -16 -17 -16 -13 0 8 -134 -78 -160 -103 -9 -8
-26 -22 -38 -30 -18 -12 -22 -24 -22 -67 0 -51 10 -67 27 -40 4 7 24 25 43 41
19 16 34 33 33 37 -2 5 4 6 13 2 8 -3 14 -1 12 5 -2 5 1 10 5 10 5 1 19 12 32
26 12 13 26 22 29 19 3 -4 6 0 6 7 0 7 3 11 6 7 3 -3 18 5 32 18 14 13 29 22
34 19 4 -3 8 2 8 11 0 9 5 13 10 10 6 -3 17 1 26 9 9 9 20 13 26 10 7 -4 8 -2
4 4 -6 11 6 16 27 13 4 0 7 3 7 8 0 10 30 23 41 18 4 -1 16 6 26 16 11 9 23
14 26 11 4 -4 9 1 13 10 3 9 10 14 14 11 10 -6 70 15 70 25 0 4 8 6 19 3 10
-2 24 2 32 9 8 7 27 13 42 13 16 -1 31 3 34 9 4 5 1 6 -7 1 -8 -5 -11 -4 -7 1
3 6 26 10 51 9 28 0 42 3 36 9 -11 11 -32 13 -70 8z"/>
<path d="M830 521 c0 -5 -8 -10 -17 -10 -23 0 -54 -6 -73 -13 -8 -3 -35 -11
-60 -18 -25 -7 -51 -14 -58 -16 -7 -2 -11 -8 -8 -12 3 -5 -5 -8 -17 -7 -12 1
-37 -7 -55 -17 -18 -10 -39 -18 -47 -18 -8 0 -15 -5 -15 -11 0 -5 -4 -7 -10
-4 -5 3 -10 1 -10 -5 0 -6 -4 -8 -10 -5 -5 3 -10 -2 -11 -12 0 -11 -3 -13 -6
-5 -4 10 -9 8 -21 -5 -10 -10 -24 -19 -32 -21 -8 -2 -17 -8 -18 -13 -2 -5 -8
-7 -13 -3 -5 3 -12 -2 -15 -10 -3 -9 -11 -16 -18 -16 -6 0 -18 -9 -26 -19 -7
-11 -17 -18 -21 -16 -11 7 -189 -170 -181 -180 5 -7 112 -10 302 -8 322 2 329
2 348 21 8 7 18 9 24 6 6 -4 8 -2 4 4 -3 6 3 13 14 17 11 3 20 13 20 21 0 8 7
14 15 14 8 0 14 3 13 8 -1 4 3 17 10 29 13 23 24 89 23 128 -5 120 -5 162 2
158 5 -3 4 4 -2 15 -13 24 -31 38 -31 23z"/>
<path d="M855 519 c7 -11 35 -12 35 -1 0 4 -9 8 -20 9 -11 1 -18 -2 -15 -8z"/>
</g>
</svg>
